<svg aria-hidden="true" style="position: absolute; width: 0; height: 0; overflow: hidden;" version="1.1" xmlns="http://www.w3.org/2000/svg" xmlns:xlink="http://www.w3.org/1999/xlink">
<defs>
<symbol id="icon-delivery_dining" viewBox="0 0 24 24">
<path d="M18.984 17.016q0.422 0 0.727-0.305t0.305-0.727-0.305-0.703-0.727-0.281-0.703 0.281-0.281 0.703 0.281 0.727 0.703 0.305zM18.984 12.984q1.219 0 2.109 0.891t0.891 2.109-0.891 2.109-2.109 0.891-2.109-0.891-0.891-2.109 0.891-2.109 2.109-0.891zM5.016 6h4.969v2.016h-4.969v-2.016zM6.984 17.016q0.422 0 0.727-0.305t0.305-0.727h-2.016q0 0.422 0.281 0.727t0.703 0.305zM18.984 6.984v3.375l-4.5 5.625h-4.5q0 1.219-0.891 2.109t-2.109 0.891-2.109-0.891-0.891-2.109h-1.969v-3q0-1.641 1.172-2.813t2.813-1.172h3.984v5.016h3.516l3.516-4.359v-2.672h-3v-1.969h3q0.797 0 1.383 0.586t0.586 1.383z"></path>
</symbol>
<symbol id="icon-cart-plus" viewBox="0 0 26 28">
<path d="M19 11c0-0.547-0.453-1-1-1h-2v-2c0-0.547-0.453-1-1-1s-1 0.453-1 1v2h-2c-0.547 0-1 0.453-1 1s0.453 1 1 1h2v2c0 0.547 0.453 1 1 1s1-0.453 1-1v-2h2c0.547 0 1-0.453 1-1zM10 24c0 1.109-0.891 2-2 2s-2-0.891-2-2 0.891-2 2-2 2 0.891 2 2zM24 24c0 1.109-0.891 2-2 2s-2-0.891-2-2 0.891-2 2-2 2 0.891 2 2zM26 7v8c0 0.5-0.375 0.938-0.891 1l-16.312 1.906c0.063 0.344 0.203 0.734 0.203 1.094s-0.219 0.688-0.375 1h14.375c0.547 0 1 0.453 1 1s-0.453 1-1 1h-16c-0.547 0-1-0.453-1-1 0-0.484 0.734-1.687 0.953-2.141l-2.766-12.859h-3.187c-0.547 0-1-0.453-1-1s0.453-1 1-1h4c1.062 0 1.078 1.25 1.234 2h18.766c0.547 0 1 0.453 1 1z"></path>
</symbol>
<symbol id="icon-truck" viewBox="0 0 32 32">
<path d="M32 18l-4-8h-6v-4c0-1.1-0.9-2-2-2h-18c-1.1 0-2 0.9-2 2v16l2 2h2.536c-0.341 0.588-0.536 1.271-0.536 2 0 2.209 1.791 4 4 4s4-1.791 4-4c0-0.729-0.196-1.412-0.536-2h11.073c-0.341 0.588-0.537 1.271-0.537 2 0 2.209 1.791 4 4 4s4-1.791 4-4c0-0.729-0.196-1.412-0.537-2h2.537v-6zM22 18v-6h4.146l3 6h-7.146z"></path>
</symbol>
<symbol id="icon-signal" viewBox="0 0 32 32">
<path d="M15 12h2v18h-2v-18z"></path>
<path d="M11.33 18.22c-1.436-1.287-2.336-3.149-2.336-5.22s0.9-3.933 2.33-5.214l0.007-0.006 1.34 1.49c-1.027 0.92-1.67 2.25-1.67 3.73s0.643 2.81 1.665 3.726l0.005 0.004z"></path>
<path d="M20.67 18.22l-1.34-1.49c1.027-0.92 1.67-2.25 1.67-3.73s-0.643-2.81-1.666-3.726l-0.005-0.004 1.34-1.49c1.436 1.287 2.336 3.149 2.336 5.22s-0.9 3.933-2.33 5.214l-0.007 0.006z"></path>
<path d="M8.4 21.8c-2.684-2.028-4.4-5.214-4.4-8.8s1.716-6.772 4.372-8.78l0.028-0.020 1.2 1.6c-2.196 1.659-3.6 4.266-3.6 7.2s1.404 5.541 3.577 7.184l0.023 0.016z"></path>
<path d="M23.6 21.8l-1.2-1.6c2.196-1.659 3.6-4.266 3.6-7.2s-1.404-5.541-3.577-7.184l-0.023-0.016 1.2-1.6c2.684 2.028 4.4 5.214 4.4 8.8s-1.716 6.772-4.372 8.78l-0.028 0.020z"></path>
</symbol>
<symbol id="icon-networking" viewBox="0 0 32 32">
<path d="M12.956 18h-9.91c-1.128 0-2.046 0.899-2.046 2.004v6.992c0 1.105 0.918 2.004 2.046 2.004h9.91c1.127 0 2.044-0.899 2.044-2.004v-6.992c0-1.105-0.917-2.004-2.044-2.004zM12.956 27l-9.956-0.004 0.046-6.996 9.954 0.004 0.003 6.978c0 0.001-0.012 0.018-0.047 0.018z"></path>
<path d="M24 15h-16c-0.552 0-1 0.448-1 1v3c0 0.552 0.448 1 1 1s1-0.448 1-1v-2h14v2c0 0.552 0.448 1 1 1s1-0.448 1-1v-3c0-0.552-0.448-1-1-1z"></path>
<path d="M28.954 18h-9.908c-1.128 0-2.046 0.899-2.046 2.004v6.992c0 1.105 0.918 2.004 2.046 2.004h9.908c1.128 0 2.046-0.899 2.046-2.004v-6.992c-0-1.105-0.918-2.004-2.046-2.004zM28.954 27l-9.954-0.004 0.046-6.996 9.954 0.004 0.004 6.978c-0.001-0-0.013 0.018-0.050 0.018z"></path>
<path d="M26 30h-4c-0.552 0-1 0.448-1 1s0.448 1 1 1h4c0.552 0 1-0.448 1-1s-0.448-1-1-1z"></path>
<path d="M20.954 0h-9.908c-1.128 0-2.046 0.899-2.046 2.004v6.992c0 1.105 0.918 2.004 2.046 2.004h9.908c1.128 0 2.046-0.899 2.046-2.004v-6.992c0-1.105-0.918-2.004-2.046-2.004zM20.954 9l-9.954-0.004 0.046-6.996 9.954 0.004 0.004 6.978c-0.001 0-0.013 0.018-0.050 0.018z"></path>
<path d="M18 12h-4c-0.552 0-1 0.448-1 1s0.448 1 1 1h4c0.552 0 1-0.448 1-1s-0.448-1-1-1z"></path>
<path d="M10 30h-4c-0.552 0-1 0.448-1 1s0.448 1 1 1h4c0.552 0 1-0.448 1-1s-0.448-1-1-1z"></path>
<path d="M16 12c-0.552 0-1 0.448-1 1v3c0 0.552 0.448 1 1 1s1-0.448 1-1v-3c0-0.552-0.448-1-1-1z"></path>
</symbol>
<symbol id="icon-networking-svgrepo-com" viewBox="0 0 32 32">
<path d="M24.927 14.44c-0.444 0-0.803 0.359-0.803 0.803v4.535c0 0.444 0.359 0.803 0.803 0.803h6.271c0.444 0 0.803-0.359 0.803-0.803v-4.542c0-0.444-0.359-0.803-0.803-0.803h-2.336v-3.028c0-0.444-0.359-0.803-0.803-0.803h-11.263v-2.343h2.976c0.444 0 0.803-0.359 0.803-0.803v-5.834c0-0.444-0.359-0.803-0.803-0.803h-7.55c-0.444 0-0.803 0.359-0.803 0.803v5.847c0 0.444 0.359 0.803 0.803 0.803h2.976v2.343h-11.256c-0.444 0-0.803 0.359-0.803 0.803v3.028h-2.336c-0.444 0-0.803 0.359-0.803 0.803v4.529c0 0.444 0.359 0.803 0.803 0.803h6.271c0.444 0 0.803-0.359 0.803-0.803v-4.542c0-0.444-0.359-0.803-0.803-0.803h-2.336v-2.225h10.46v2.225h-2.336c-0.444 0-0.803 0.359-0.803 0.803v4.542c0 0.444 0.359 0.803 0.803 0.803h2.336v1.847h-8.124c-0.444 0-0.803 0.359-0.803 0.803v2.63h-1.416c-0.444 0-0.803 0.359-0.803 0.803v3.713c0 0.444 0.359 0.803 0.803 0.803h4.444c0.444 0 0.803-0.359 0.803-0.803v-3.713c0-0.444-0.359-0.803-0.803-0.803h-1.423v-1.84h7.328v1.742c0 0.033 0.007 0.059 0.007 0.091h-1.436c-0.444 0-0.803 0.359-0.803 0.803v3.713c0 0.444 0.359 0.803 0.803 0.803h4.444c0.444 0 0.803-0.359 0.803-0.803v-3.713c0-0.444-0.359-0.803-0.803-0.803h-1.436c0.007-0.033 0.007-0.059 0.007-0.091v-1.742h7.328v1.834h-1.422c-0.444 0-0.803 0.359-0.803 0.803v3.713c0 0.444 0.359 0.803 0.803 0.803h4.444c0.444 0 0.803-0.359 0.803-0.803v-3.713c0-0.444-0.359-0.803-0.803-0.803h-1.416v-2.63c0-0.444-0.359-0.803-0.803-0.803h-8.124v-1.847h2.336c0.444 0 0.803-0.359 0.803-0.803v-4.542c0-0.444-0.359-0.803-0.803-0.803h-2.336v-2.225h10.46v2.225h-2.33v0.013zM13.024 2.421h5.951v4.248h-5.951v-4.248zM6.277 18.982h-4.679v-2.943h4.679v2.943zM8.502 29.566h-2.852v-2.114h2.845v2.114h0.007zM17.422 29.566h-2.845v-2.114h2.845v2.114zM26.349 29.566h-2.845v-2.114h2.845v2.114zM18.336 18.982h-4.672v-2.943h4.672v2.943zM30.401 18.982h-4.679v-2.943h4.672v2.943h0.007z"></path>
</symbol>
<symbol id="icon-road" viewBox="0 0 32 32">
<path d="M18.667 28.093c-0.265 0-0.52-0.105-0.707-0.293s-0.293-0.442-0.293-0.707v-7.707c0.003-0.264 0.11-0.517 0.297-0.703s0.439-0.293 0.703-0.297h7.587c0.265 0 0.52 0.105 0.707 0.293s0.293 0.442 0.293 0.707-0.105 0.52-0.293 0.707c-0.187 0.188-0.442 0.293-0.707 0.293h-6.653v6.667c0.007 0.13-0.011 0.259-0.054 0.382s-0.11 0.235-0.197 0.332c-0.087 0.097-0.192 0.175-0.309 0.231s-0.244 0.088-0.374 0.095z"></path>
<path d="M13.4 28.093c-0.132 0.002-0.263-0.023-0.385-0.073s-0.233-0.123-0.326-0.216c-0.093-0.093-0.167-0.204-0.216-0.326s-0.074-0.253-0.072-0.385v-6.667h-6.587c-0.265 0-0.52-0.105-0.707-0.293s-0.293-0.442-0.293-0.707 0.105-0.52 0.293-0.707c0.188-0.187 0.442-0.293 0.707-0.293h7.587c0.264 0.003 0.517 0.11 0.703 0.297s0.293 0.439 0.297 0.703v7.707c-0.010 0.258-0.12 0.502-0.307 0.681s-0.435 0.279-0.693 0.279z"></path>
<path d="M13.4 15.067h-7.587c-0.265 0-0.52-0.105-0.707-0.293s-0.293-0.442-0.293-0.707 0.105-0.52 0.293-0.707c0.188-0.188 0.442-0.293 0.707-0.293h6.587v-6.667c0-0.265 0.105-0.52 0.293-0.707s0.442-0.293 0.707-0.293c0.265 0 0.52 0.105 0.707 0.293s0.293 0.442 0.293 0.707v7.707c-0.014 0.257-0.124 0.499-0.31 0.678s-0.432 0.279-0.69 0.282z"></path>
<path d="M26.187 15.067h-7.52c-0.264-0.003-0.517-0.11-0.703-0.297s-0.293-0.439-0.297-0.703v-7.707c0-0.265 0.105-0.52 0.293-0.707s0.442-0.293 0.707-0.293 0.52 0.105 0.707 0.293c0.188 0.188 0.293 0.442 0.293 0.707v6.667h6.587c0.265 0 0.52 0.105 0.707 0.293s0.293 0.442 0.293 0.707-0.105 0.52-0.293 0.707c-0.187 0.188-0.442 0.293-0.707 0.293l-0.067 0.040z"></path>
</symbol>
<symbol id="icon-f" viewBox="0 0 20 20">
<path d="M10 0.4c-5.302 0-9.6 4.298-9.6 9.6s4.298 9.6 9.6 9.6 9.6-4.298 9.6-9.6-4.298-9.6-9.6-9.6zM12.274 7.034h-1.443c-0.171 0-0.361 0.225-0.361 0.524v1.042h1.805l-0.273 1.486h-1.532v4.461h-1.703v-4.461h-1.545v-1.486h1.545v-0.874c0-1.254 0.87-2.273 2.064-2.273h1.443v1.581z"></path>
</symbol>
<symbol id="icon-i" viewBox="0 0 32 32">
<path d="M16 2.881c4.275 0 4.781 0.019 6.462 0.094 1.563 0.069 2.406 0.331 2.969 0.55 0.744 0.288 1.281 0.638 1.837 1.194 0.563 0.563 0.906 1.094 1.2 1.838 0.219 0.563 0.481 1.412 0.55 2.969 0.075 1.688 0.094 2.194 0.094 6.463s-0.019 4.781-0.094 6.463c-0.069 1.563-0.331 2.406-0.55 2.969-0.288 0.744-0.637 1.281-1.194 1.837-0.563 0.563-1.094 0.906-1.837 1.2-0.563 0.219-1.413 0.481-2.969 0.55-1.688 0.075-2.194 0.094-6.463 0.094s-4.781-0.019-6.463-0.094c-1.563-0.069-2.406-0.331-2.969-0.55-0.744-0.288-1.281-0.637-1.838-1.194-0.563-0.563-0.906-1.094-1.2-1.837-0.219-0.563-0.481-1.413-0.55-2.969-0.075-1.688-0.094-2.194-0.094-6.463s0.019-4.781 0.094-6.463c0.069-1.563 0.331-2.406 0.55-2.969 0.288-0.744 0.638-1.281 1.194-1.838 0.563-0.563 1.094-0.906 1.838-1.2 0.563-0.219 1.412-0.481 2.969-0.55 1.681-0.075 2.188-0.094 6.463-0.094zM16 0c-4.344 0-4.887 0.019-6.594 0.094-1.7 0.075-2.869 0.35-3.881 0.744-1.056 0.412-1.95 0.956-2.837 1.85-0.894 0.888-1.438 1.781-1.85 2.831-0.394 1.019-0.669 2.181-0.744 3.881-0.075 1.713-0.094 2.256-0.094 6.6s0.019 4.887 0.094 6.594c0.075 1.7 0.35 2.869 0.744 3.881 0.413 1.056 0.956 1.95 1.85 2.837 0.887 0.887 1.781 1.438 2.831 1.844 1.019 0.394 2.181 0.669 3.881 0.744 1.706 0.075 2.25 0.094 6.594 0.094s4.888-0.019 6.594-0.094c1.7-0.075 2.869-0.35 3.881-0.744 1.050-0.406 1.944-0.956 2.831-1.844s1.438-1.781 1.844-2.831c0.394-1.019 0.669-2.181 0.744-3.881 0.075-1.706 0.094-2.25 0.094-6.594s-0.019-4.887-0.094-6.594c-0.075-1.7-0.35-2.869-0.744-3.881-0.394-1.063-0.938-1.956-1.831-2.844-0.887-0.887-1.781-1.438-2.831-1.844-1.019-0.394-2.181-0.669-3.881-0.744-1.712-0.081-2.256-0.1-6.6-0.1v0z"></path>
<path d="M16 7.781c-4.537 0-8.219 3.681-8.219 8.219s3.681 8.219 8.219 8.219 8.219-3.681 8.219-8.219c0-4.537-3.681-8.219-8.219-8.219zM16 21.331c-2.944 0-5.331-2.387-5.331-5.331s2.387-5.331 5.331-5.331c2.944 0 5.331 2.387 5.331 5.331s-2.387 5.331-5.331 5.331z"></path>
<path d="M26.462 7.456c0 1.060-0.859 1.919-1.919 1.919s-1.919-0.859-1.919-1.919c0-1.060 0.859-1.919 1.919-1.919s1.919 0.859 1.919 1.919z"></path>
</symbol>
<symbol id="icon-t" viewBox="0 0 32 32">
<path d="M32 7.075c-1.175 0.525-2.444 0.875-3.769 1.031 1.356-0.813 2.394-2.1 2.887-3.631-1.269 0.75-2.675 1.3-4.169 1.594-1.2-1.275-2.906-2.069-4.794-2.069-3.625 0-6.563 2.938-6.563 6.563 0 0.512 0.056 1.012 0.169 1.494-5.456-0.275-10.294-2.888-13.531-6.862-0.563 0.969-0.887 2.1-0.887 3.3 0 2.275 1.156 4.287 2.919 5.463-1.075-0.031-2.087-0.331-2.975-0.819 0 0.025 0 0.056 0 0.081 0 3.181 2.263 5.838 5.269 6.437-0.55 0.15-1.131 0.231-1.731 0.231-0.425 0-0.831-0.044-1.237-0.119 0.838 2.606 3.263 4.506 6.131 4.563-2.25 1.762-5.075 2.813-8.156 2.813-0.531 0-1.050-0.031-1.569-0.094 2.913 1.869 6.362 2.95 10.069 2.95 12.075 0 18.681-10.006 18.681-18.681 0-0.287-0.006-0.569-0.019-0.85 1.281-0.919 2.394-2.075 3.275-3.394z"></path>
</symbol>
<symbol id="icon-l" viewBox="0 0 32 32">
<path d="M29 0h-26c-1.65 0-3 1.35-3 3v26c0 1.65 1.35 3 3 3h26c1.65 0 3-1.35 3-3v-26c0-1.65-1.35-3-3-3zM12 26h-4v-14h4v14zM10 10c-1.106 0-2-0.894-2-2s0.894-2 2-2c1.106 0 2 0.894 2 2s-0.894 2-2 2zM26 26h-4v-8c0-1.106-0.894-2-2-2s-2 0.894-2 2v8h-4v-14h4v2.481c0.825-1.131 2.087-2.481 3.5-2.481 2.488 0 4.5 2.238 4.5 5v9z"></path>
</symbol>
</defs>
</svg>
